<svg xmlns="http://www.w3.org/2000/svg" viewBox="0 0 600 340" width="100%" height="100%">
  <defs>
    <linearGradient id="bgAiDi" x1="0%" y1="0%" x2="100%" y2="100%">
      <stop offset="0%" stop-color="#1B2A4A" />
      <stop offset="100%" stop-color="#0F172A" />
    </linearGradient>
  </defs>

  <rect width="600" height="340" fill="url(#bgAiDi)" />

  <!-- Browser Window Frame -->
  <rect x="70" y="40" width="460" height="260" rx="10" fill="#1B3B6F" fill-opacity="0.3" stroke="#8FB8E0" stroke-width="1.5" />
  
  <!-- Browser Header Bar -->
  <rect x="70" y="40" width="460" height="32" rx="10" fill="#1B2A4A" />
  <circle cx="95" cy="56" r="5" fill="#EF4444" />
  <circle cx="112" cy="56" r="5" fill="#F59E0B" />
  <circle cx="129" cy="56" r="5" fill="#10B981" />
  <rect x="150" y="48" width="220" height="16" rx="8" fill="#1B3B6F" fill-opacity="0.6" />
  <text x="260" y="60" font-family="'Inter', sans-serif" font-size="9" fill="#8FB8E0" text-anchor="middle">aiditech.machung.ac.id/admin</text>

  <!-- Sidebar / Dashboard Wireframe -->
  <rect x="85" y="85" width="90" height="200" rx="6" fill="#0F172A" fill-opacity="0.6" />
  <line x1="95" y1="105" x2="165" y2="105" stroke="#8FB8E0" stroke-width="2" />
  <line x1="95" y1="125" x2="145" y2="125" stroke="#8FA0BE" stroke-width="1.5" stroke-opacity="0.6" />
  <line x1="95" y1="145" x2="155" y2="145" stroke="#8FA0BE" stroke-width="1.5" stroke-opacity="0.6" />
  <line x1="95" y1="165" x2="135" y2="165" stroke="#8FA0BE" stroke-width="1.5" stroke-opacity="0.6" />

  <!-- Main Content Area -->
  <rect x="190" y="85" width="325" height="70" rx="6" fill="#1B2A4A" stroke="#8FB8E0" stroke-width="1" stroke-opacity="0.3" />
  <text x="210" y="112" font-family="'Space Grotesk', sans-serif" font-weight="600" font-size="14" fill="#F7F4EE">AiDiTech Research Portal</text>
  <text x="210" y="132" font-family="'Inter', sans-serif" font-size="10" fill="#B9C4D9">PHP &amp; MySQL Database Journal Repository</text>

  <!-- Article Cards inside Portal -->
  <rect x="190" y="170" width="155" height="115" rx="6" fill="#0F172A" fill-opacity="0.5" stroke="#8FB8E0" stroke-width="1" stroke-opacity="0.2" />
  <rect x="200" y="180" width="135" height="40" rx="4" fill="#1B3B6F" fill-opacity="0.4" />
  <line x1="200" y1="235" x2="310" y2="235" stroke="#F7F4EE" stroke-width="1.5" stroke-opacity="0.7" />
  <line x1="200" y1="250" x2="280" y2="250" stroke="#8FB8E0" stroke-width="1.5" stroke-opacity="0.5" />

  <rect x="360" y="170" width="155" height="115" rx="6" fill="#0F172A" fill-opacity="0.5" stroke="#8FB8E0" stroke-width="1" stroke-opacity="0.2" />
  <rect x="370" y="180" width="135" height="40" rx="4" fill="#1B3B6F" fill-opacity="0.4" />
  <line x1="370" y1="235" x2="480" y2="235" stroke="#F7F4EE" stroke-width="1.5" stroke-opacity="0.7" />
  <line x1="370" y1="250" x2="450" y2="250" stroke="#8FB8E0" stroke-width="1.5" stroke-opacity="0.5" />
</svg>
